# xmcd CD database file
#
# Track frame offsets:
#	150
#	24750
#	57752
#	80477
#	98403
#	129004
#	165830
#	192156
#	211732
#	236707
#	262733
#	291084
#
# Disc length: 4063 seconds
#
# Revision: 1
# Processed by: cddbd v1.5.1PL0 Copyright (c) Steve Scherf et al.
# Submitted via: CDex 1.51
#
DISCID=840fdd0c
DTITLE=Super Trio - Super Standard
DYEAR=2004
DGENRE=Jazz
TTITLE0=All Of Me
TTITLE1=Bye Bye Blackbird
TTITLE2=Cherokee
TTITLE3=Cleopatra's Dream
TTITLE4=Doxy
TTITLE5=Misty
TTITLE6=Stolen Moments
TTITLE7=Summer Night
TTITLE8=Sunset and The Mockingbird
TTITLE9=Sweet and Lovely
TTITLE10=Willow Weep For Me
TTITLE11=Yesterdays
EXTD=YEAR: 2004
EXTT0=
EXTT1=
EXTT2=
EXTT3=
EXTT4=
EXTT5=
EXTT6=
EXTT7=
EXTT8=
EXTT9=
EXTT10=
EXTT11=
PLAYORDER=
